<svg xmlns="http://www.w3.org/2000/svg" xmlns:xlink="http://www.w3.org/1999/xlink" contentStyleType="text/css" data-diagram-type="STATE" height="609px" preserveAspectRatio="none" style="width:909px;height:609px;background:#FFFFFF;" version="1.1" viewBox="0 0 909 609" width="909px" zoomAndPan="magnify"><?plantuml 1.2026.6?><defs/><g><g class="title" data-source-line="25"><text fill="#000000" font-family="'Helvetica'" font-size="18" font-weight="700" lengthAdjust="spacing" textLength="291.1025" x="305.4794" y="23.8604">Claim states in cross-examination</text></g><g class="legend" data-source-line="27"><rect fill="none" height="56" rx="7.5" ry="7.5" style="stroke:#000000;stroke-width:1;" width="218.585" x="671.4764" y="51"/><rect fill="#C8E6C9" height="14" style="stroke:none;stroke-width:1;" width="15.5586" x="676.4764" y="58"/><text fill="#000000" font-family="'Helvetica'" font-size="14" lengthAdjust="spacing" textLength="15.5586" x="676.4764" y="68.7803">&#160;&#160;&#160;&#160;</text><text fill="#000000" font-family="'Helvetica'" font-size="14" lengthAdjust="spacing" textLength="137.7305" x="695.9246" y="68.7803">terminal, clears a gate</text><rect fill="#FFCDD2" height="14" style="stroke:none;stroke-width:1;" width="15.5586" x="676.4764" y="72"/><text fill="#000000" font-family="'Helvetica'" font-size="14" lengthAdjust="spacing" textLength="15.5586" x="676.4764" y="82.7803">&#160;&#160;&#160;&#160;</text><text fill="#000000" font-family="'Helvetica'" font-size="14" lengthAdjust="spacing" textLength="154.0889" x="695.9246" y="82.7803">terminal, needs a human</text><rect fill="#ECEFF1" height="14" style="stroke:none;stroke-width:1;" width="15.5586" x="676.4764" y="86"/><text fill="#000000" font-family="'Helvetica'" font-size="14" lengthAdjust="spacing" textLength="15.5586" x="676.4764" y="96.7803">&#160;&#160;&#160;&#160;</text><text fill="#000000" font-family="'Helvetica'" font-size="14" lengthAdjust="spacing" textLength="185.2471" x="695.9246" y="96.7803">another round could change it</text><line style="stroke:#000000;stroke-width:1;" x1="676.4764" x2="885.0613" y1="58" y2="58"/><line style="stroke:#000000;stroke-width:1;" x1="676.4764" x2="885.0613" y1="72" y2="72"/><line style="stroke:#000000;stroke-width:1;" x1="676.4764" x2="885.0613" y1="86" y2="86"/><line style="stroke:#000000;stroke-width:1;" x1="676.4764" x2="885.0613" y1="100" y2="100"/><line style="stroke:#000000;stroke-width:1;" x1="676.4764" x2="676.4764" y1="58" y2="100"/><line style="stroke:#000000;stroke-width:1;" x1="692.035" x2="692.035" y1="58" y2="100"/><line style="stroke:#000000;stroke-width:1;" x1="885.0613" x2="885.0613" y1="58" y2="100"/></g><g class="entity" data-qualified-name="C" data-source-line="33" id="ent0001"><rect fill="#ECEFF1" height="50" rx="12.5" ry="12.5" style="stroke:#546E7A;stroke-width:0.5;" width="72.0371" x="412.54" y="280"/><line style="stroke:#546E7A;stroke-width:0.5;" x1="412.54" x2="484.5771" y1="302" y2="302"/><text fill="#000000" font-family="'Helvetica'" font-size="12" lengthAdjust="spacing" textLength="52.0371" x="422.54" y="294.2402">contested</text></g><g class="entity" data-qualified-name="SU" data-source-line="34" id="ent0002"><rect fill="#FFCDD2" height="50" rx="12.5" ry="12.5" style="stroke:#546E7A;stroke-width:0.5;" width="95.3867" x="53.86" y="414"/><line style="stroke:#546E7A;stroke-width:0.5;" x1="53.86" x2="149.2467" y1="436" y2="436"/><text fill="#000000" font-family="'Helvetica'" font-size="12" lengthAdjust="spacing" textLength="75.3867" x="63.86" y="428.2402">settled-upheld</text></g><g class="entity" data-qualified-name="SR" data-source-line="35" id="ent0003"><rect fill="#C8E6C9" height="50" rx="12.5" ry="12.5" style="stroke:#546E7A;stroke-width:0.5;" width="96.7109" x="192.2" y="414"/><line style="stroke:#546E7A;stroke-width:0.5;" x1="192.2" x2="288.9109" y1="436" y2="436"/><text fill="#000000" font-family="'Helvetica'" font-size="12" lengthAdjust="spacing" textLength="76.7109" x="202.2" y="428.2402">settled-refuted</text></g><g class="entity" data-qualified-name="SUP" data-source-line="36" id="ent0004"><rect fill="#C8E6C9" height="50" rx="12.5" ry="12.5" style="stroke:#546E7A;stroke-width:0.5;" width="82.7129" x="331.2" y="414"/><line style="stroke:#546E7A;stroke-width:0.5;" x1="331.2" x2="413.9129" y1="436" y2="436"/><text fill="#000000" font-family="'Helvetica'" font-size="12" lengthAdjust="spacing" textLength="62.7129" x="341.2" y="428.2402">superseded</text></g><g class="entity" data-qualified-name="DL" data-source-line="37" id="ent0005"><rect fill="#FFCDD2" height="50" rx="12.5" ry="12.5" style="stroke:#546E7A;stroke-width:0.5;" width="81.3828" x="480.86" y="414"/><line style="stroke:#546E7A;stroke-width:0.5;" x1="480.86" x2="562.2428" y1="436" y2="436"/><text fill="#000000" font-family="'Helvetica'" font-size="12" lengthAdjust="spacing" textLength="61.3828" x="490.86" y="428.2402">deadlocked</text></g><g class="entity" data-qualified-name="UP" data-source-line="38" id="ent0006"><rect fill="#ECEFF1" height="50" rx="12.5" ry="12.5" style="stroke:#546E7A;stroke-width:0.5;" width="70.0391" x="275.54" y="136"/><line style="stroke:#546E7A;stroke-width:0.5;" x1="275.54" x2="345.5791" y1="158" y2="158"/><text fill="#000000" font-family="'Helvetica'" font-size="12" lengthAdjust="spacing" textLength="50.0391" x="285.54" y="150.2402">unproven</text></g><g class="entity" data-qualified-name="IN" data-source-line="39" id="ent0007"><rect fill="#ECEFF1" height="50" rx="12.5" ry="12.5" style="stroke:#546E7A;stroke-width:0.5;" width="78.0313" x="682.54" y="414"/><line style="stroke:#546E7A;stroke-width:0.5;" x1="682.54" x2="760.5713" y1="436" y2="436"/><text fill="#000000" font-family="'Helvetica'" font-size="12" lengthAdjust="spacing" textLength="58.0313" x="692.54" y="428.2402">incomplete</text></g><g class="entity" data-qualified-name="DIS" data-source-line="40" id="ent0008"><rect fill="#C8E6C9" height="50" rx="12.5" ry="12.5" style="stroke:#546E7A;stroke-width:0.5;" width="72.0313" x="166.54" y="280"/><line style="stroke:#546E7A;stroke-width:0.5;" x1="166.54" x2="238.5713" y1="302" y2="302"/><text fill="#000000" font-family="'Helvetica'" font-size="12" lengthAdjust="spacing" textLength="52.0313" x="176.54" y="294.2402">discarded</text></g><g class="start_entity" data-qualified-name=".start." data-source-line="42" id="ent0009"><ellipse cx="639.55" cy="161" fill="#222222" rx="10" ry="10" style="stroke:#222222;stroke-width:1;"/></g><g class="end_entity" data-qualified-name=".end." data-source-line="56" id="ent0021"><ellipse cx="347.55" cy="571" fill="none" rx="11" ry="11" style="stroke:#222222;stroke-width:1;"/><ellipse cx="347.55" cy="571" fill="#222222" rx="6" ry="6" style="stroke:#222222;stroke-width:1;"/></g><g class="entity" data-qualified-name="GMN23" data-source-line="59" id="ent0024"><path d="M6,548 L6,594 A0,0 0 0 0 6,594 L197.1094,594 A0,0 0 0 0 197.1094,594 L197.1094,558 L187.1094,548 L105.55,548 L101.55,464.45 L97.55,548 L6,548 A0,0 0 0 0 6,548" fill="#FFF8E1" style="stroke:#F9A825;stroke-width:0.5;"/><path d="M187.1094,548 L187.1094,558 L197.1094,558 L187.1094,548" fill="#FFF8E1" style="stroke:#F9A825;stroke-width:0.5;"/><text fill="#000000" font-family="'Helvetica'" font-size="12" lengthAdjust="spacing" textLength="164.1035" x="12" y="562.2402">Not a pass. The judges agreed</text><text fill="#000000" font-family="'Helvetica'" font-size="12" lengthAdjust="spacing" textLength="144.0879" x="12" y="574.2402">the defect is real, so a gate</text><text fill="#000000" font-family="'Helvetica'" font-size="12" lengthAdjust="spacing" textLength="170.1094" x="12" y="586.2402">needs a Resolution, not silence.</text></g><g class="entity" data-qualified-name="GMN26" data-source-line="65" id="ent0027"><path d="M456.01,548 L456.01,594 A0,0 0 0 0 456.01,594 L643.1057,594 A0,0 0 0 0 643.1057,594 L643.1057,558 L633.1057,548 L548.78,548 L526.82,464.45 L540.78,548 L456.01,548 A0,0 0 0 0 456.01,548" fill="#FFF8E1" style="stroke:#F9A825;stroke-width:0.5;"/><path d="M633.1057,548 L633.1057,558 L643.1057,558 L633.1057,548" fill="#FFF8E1" style="stroke:#F9A825;stroke-width:0.5;"/><text fill="#000000" font-family="'Helvetica'" font-size="12" lengthAdjust="spacing" textLength="145.3828" x="462.01" y="562.2402">Never resolved by majority.</text><text fill="#000000" font-family="'Helvetica'" font-size="12" lengthAdjust="spacing" textLength="166.0957" x="462.01" y="574.2402">Both sides are quoted verbatim</text><text fill="#000000" font-family="'Helvetica'" font-size="12" lengthAdjust="spacing" textLength="143.0391" x="462.01" y="586.2402">and the call is the reader's.</text></g><g class="entity" data-qualified-name="GMN29" data-source-line="71" id="ent0030"><path d="M380.33,126 L380.33,157 L345.82,161 L380.33,165 L380.33,196 A0,0 0 0 0 380.33,196 L594.7773,196 A0,0 0 0 0 594.7773,196 L594.7773,136 L584.7773,126 L380.33,126 A0,0 0 0 0 380.33,126" fill="#FFF8E1" style="stroke:#F9A825;stroke-width:0.5;"/><path d="M584.7773,126 L584.7773,136 L594.7773,136 L584.7773,126" fill="#FFF8E1" style="stroke:#F9A825;stroke-width:0.5;"/><text fill="#000000" font-family="'Helvetica'" font-size="12" lengthAdjust="spacing" textLength="176.7598" x="386.33" y="140.2402">A dispositive verdict whose judge</text><text fill="#000000" font-family="'Helvetica'" font-size="12" lengthAdjust="spacing" textLength="167.4434" x="386.33" y="152.2402">could not locate the evidence is</text><text fill="#000000" font-family="'Helvetica'" font-size="12" lengthAdjust="spacing" textLength="193.4473" x="386.33" y="164.2402">downgraded to unproven first (&#167;6.5),</text><text fill="#000000" font-family="'Helvetica'" font-size="12" lengthAdjust="spacing" textLength="170.7598" x="386.33" y="176.2402">so nobody settles a claim by not</text><text fill="#000000" font-family="'Helvetica'" font-size="12" lengthAdjust="spacing" textLength="77.3906" x="386.33" y="188.2402">having looked.</text></g><!--link *start* to C--><g class="link" data-entity-1="ent0009" data-entity-2="ent0001" data-link-type="dependency" data-source-line="42" id="lnk10"><path d="M633.81,169.78 C628.51,176.82 620.32,187.37 612.55,196 C589.64,221.46 585.47,230.15 557.55,250 C535.01,266.03 511.5705,277.7952 489.5905,287.4152" fill="none" id="*start*-to-C" style="stroke:#37474F;stroke-width:1;"/><polygon fill="#37474F" points="485.01,289.42,494.8587,289.4758,489.5905,287.4152,491.6511,282.1471,485.01,289.42" style="stroke:#37474F;stroke-width:1;stroke-linejoin:miter;stroke-miterlimit:10;"/><text fill="#000000" font-family="'Helvetica'" font-size="11" lengthAdjust="spacing" textLength="78.8799" x="587.04" y="240.9702">round 1 raised it</text></g><!--link C to SU--><g class="link" data-entity-1="ent0001" data-entity-2="ent0002" data-link-type="dependency" data-source-line="44" id="lnk11"><path d="M412.06,310.49 C335.03,320.23 161.15,343.75 139.55,360 C122.22,373.04 113.809,391.3015 108.499,408.9715" fill="none" id="C-to-SU" style="stroke:#37474F;stroke-width:1;"/><polygon fill="#37474F" points="107.06,413.76,113.4809,406.292,108.499,408.9715,105.8194,403.9896,107.06,413.76" style="stroke:#37474F;stroke-width:1;stroke-linejoin:miter;stroke-miterlimit:10;"/><text fill="#000000" font-family="'Helvetica'" font-size="11" lengthAdjust="spacing" textLength="97.2275" x="140.55" y="369.4702">judges unanimously</text><text fill="#000000" font-family="'Helvetica'" font-size="11" font-weight="700" lengthAdjust="spacing" textLength="36.0508" x="171.1384" y="380.4702">upheld</text></g><!--link C to SR--><g class="link" data-entity-1="ent0001" data-entity-2="ent0003" data-link-type="dependency" data-source-line="45" id="lnk12"><path d="M412.13,306.05 C369.5,308.15 299.64,318.3 259.55,360 C245.84,374.27 241.8245,391.7212 240.6745,408.8712" fill="none" id="C-to-SR" style="stroke:#37474F;stroke-width:1;"/><polygon fill="#37474F" points="240.34,413.86,244.9332,405.1478,240.6745,408.8712,236.9511,404.6125,240.34,413.86" style="stroke:#37474F;stroke-width:1;stroke-linejoin:miter;stroke-miterlimit:10;"/><text fill="#000000" font-family="'Helvetica'" font-size="11" lengthAdjust="spacing" textLength="97.2275" x="260.55" y="369.4702">judges unanimously</text><text fill="#000000" font-family="'Helvetica'" font-size="11" font-weight="700" lengthAdjust="spacing" textLength="37.2808" x="290.5234" y="380.4702">refuted</text></g><!--link C to SUP--><g class="link" data-entity-1="ent0001" data-entity-2="ent0004" data-link-type="dependency" data-source-line="46" id="lnk13"><path d="M412.16,322.28 C397.02,331.1 381.02,343.6 372.55,360 C364.05,376.49 363.9041,392.7144 366.3041,408.8444" fill="none" id="C-to-SUP" style="stroke:#37474F;stroke-width:1;"/><polygon fill="#37474F" points="367.04,413.79,369.6719,404.2993,366.3041,408.8444,361.759,405.4767,367.04,413.79" style="stroke:#37474F;stroke-width:1;stroke-linejoin:miter;stroke-miterlimit:10;"/><text fill="#000000" font-family="'Helvetica'" font-size="11" lengthAdjust="spacing" textLength="97.2275" x="373.55" y="369.4702">judges unanimously</text><text fill="#000000" font-family="'Helvetica'" font-size="11" font-weight="700" lengthAdjust="spacing" textLength="48.2915" x="398.018" y="380.4702">amended</text></g><!--link C to C--><g class="link" data-entity-1="ent0001" data-entity-2="ent0001" data-link-type="dependency" data-source-line="47" id="lnk14"><path d="M484.73,292.84 C503.1,291.07 519.57,295.12 519.57,305 C519.57,314.88 508.077,319.4095 489.707,317.6395" fill="none" id="C-to-C" style="stroke:#37474F;stroke-width:1;"/><polygon fill="#37474F" points="484.73,317.16,493.3049,322.0047,489.707,317.6395,494.0721,314.0416,484.73,317.16" style="stroke:#37474F;stroke-width:1;stroke-linejoin:miter;stroke-miterlimit:10;"/><text fill="#000000" font-family="'Helvetica'" font-size="11" lengthAdjust="spacing" textLength="70.313" x="525.57" y="307.9702">rounds remain</text></g><!--link C to DL--><g class="link" data-entity-1="ent0001" data-entity-2="ent0005" data-link-type="dependency" data-source-line="48" id="lnk15"><path d="M462.74,330.38 C468.07,339.63 474.14,350.27 479.55,360 C489.5,377.88 498.0869,393.8183 506.3169,409.2483" fill="none" id="C-to-DL" style="stroke:#37474F;stroke-width:1;"/><polygon fill="#37474F" points="508.67,413.66,507.9638,403.8365,506.3169,409.2483,500.9051,407.6014,508.67,413.66" style="stroke:#37474F;stroke-width:1;stroke-linejoin:miter;stroke-miterlimit:10;"/><text fill="#000000" font-family="'Helvetica'" font-size="11" lengthAdjust="spacing" textLength="80.7222" x="493.44" y="369.4702">judges disagree,</text><text fill="#000000" font-family="'Helvetica'" font-size="11" lengthAdjust="spacing" textLength="66.6553" x="500.4734" y="380.4702">no rounds left</text></g><!--link C to UP--><g class="link" data-entity-1="ent0001" data-entity-2="ent0006" data-link-type="dependency" data-source-line="49" id="lnk16"><path d="M412.21,295.43 C386.95,287.65 354.38,273.67 334.55,250 C319.5,232.03 314.3722,210.4005 312.2722,191.1505" fill="none" id="C-to-UP" style="stroke:#37474F;stroke-width:1;"/><polygon fill="#37474F" points="311.73,186.18,308.7296,195.5607,312.2722,191.1505,316.6824,194.6931,311.73,186.18" style="stroke:#37474F;stroke-width:1;stroke-linejoin:miter;stroke-miterlimit:10;"/><text fill="#000000" font-family="'Helvetica'" font-size="11" lengthAdjust="spacing" textLength="69.0938" x="335.55" y="240.9702">below quorum</text></g><!--link UP to C--><g class="link" data-entity-1="ent0006" data-entity-2="ent0001" data-link-type="dependency" data-source-line="52" id="lnk18"><path d="M346.05,185.28 C351.57,188.88 357.21,192.55 362.55,196 C383.37,209.45 392.97,207.59 409.55,226 C423.64,241.64 432.1091,258.6334 438.5691,275.1534" fill="none" id="UP-to-C" style="stroke:#37474F;stroke-width:1;"/><polygon fill="#37474F" points="440.39,279.81,440.8376,269.9713,438.5691,275.1534,433.387,272.8848,440.39,279.81" style="stroke:#37474F;stroke-width:1;stroke-linejoin:miter;stroke-miterlimit:10;"/><text fill="#000000" font-family="'Helvetica'" font-size="11" lengthAdjust="spacing" textLength="122.3052" x="427" y="240.9702">a judge changed its mind</text></g><!--link C to IN--><g class="link" data-entity-1="ent0001" data-entity-2="ent0007" data-link-type="dependency" data-source-line="50" id="lnk17"><path d="M484.93,319.21 C512.19,329.46 550.22,344.49 582.55,360 C616.99,376.51 650.3844,395.348 677.8244,411.548" fill="none" id="C-to-IN" style="stroke:#37474F;stroke-width:1;"/><polygon fill="#37474F" points="682.13,414.09,676.4134,406.07,677.8244,411.548,672.3463,412.959,682.13,414.09" style="stroke:#37474F;stroke-width:1;stroke-linejoin:miter;stroke-miterlimit:10;"/><text fill="#000000" font-family="'Helvetica'" font-size="11" lengthAdjust="spacing" textLength="81.3237" x="646.6038" y="369.4702">below quorum: a</text><text fill="#000000" font-family="'Helvetica'" font-size="11" lengthAdjust="spacing" textLength="121.6714" x="626.43" y="380.4702">required judge is missing</text></g><!--link IN to C--><g class="link" data-entity-1="ent0007" data-entity-2="ent0001" data-link-type="dependency" data-source-line="54" id="lnk20"><path d="M745.4,413.56 C758.53,397.12 769.73,375.68 756.55,360 C722.21,319.11 563.7274,309.3324 489.8874,306.9324" fill="none" id="IN-to-C" style="stroke:#37474F;stroke-width:1;"/><polygon fill="#37474F" points="484.89,306.77,493.7553,311.0603,489.8874,306.9324,494.0152,303.0645,484.89,306.77" style="stroke:#37474F;stroke-width:1;stroke-linejoin:miter;stroke-miterlimit:10;"/><text fill="#000000" font-family="'Helvetica'" font-size="11" lengthAdjust="spacing" textLength="129.6313" x="763.43" y="374.9702">the missing judge reported</text></g><!--link UP to DIS--><g class="link" data-entity-1="ent0006" data-entity-2="ent0008" data-link-type="dependency" data-source-line="53" id="lnk19"><path d="M275.15,171.91 C249.16,181.25 215.69,198.07 199.55,226 C190.27,242.08 190.7531,258.3866 194.1631,274.6366" fill="none" id="UP-to-DIS" style="stroke:#37474F;stroke-width:1;"/><polygon fill="#37474F" points="195.19,279.53,197.2564,269.9004,194.1631,274.6366,189.4269,271.5433,195.19,279.53" style="stroke:#37474F;stroke-width:1;stroke-linejoin:miter;stroke-miterlimit:10;"/><text fill="#000000" font-family="'Helvetica'" font-size="11" lengthAdjust="spacing" textLength="80.083" x="207.288" y="235.4702">same verdict set</text><text fill="#000000" font-family="'Helvetica'" font-size="11" lengthAdjust="spacing" textLength="93.5591" x="200.55" y="246.4702">two rounds running</text></g><!--link SUP to *end*--><g class="link" data-entity-1="ent0004" data-entity-2="ent0021" data-link-type="dependency" data-source-line="56" id="lnk22"><path d="M356.82,464.29 C351.88,473.26 347.06,483.74 344.55,494 C338.92,517.09 341.7744,540.3645 344.5144,555.0745" fill="none" id="SUP-to-*end*" style="stroke:#37474F;stroke-width:1;"/><polygon fill="#37474F" points="345.43,559.99,347.7143,550.4097,344.5144,555.0745,339.8496,551.8747,345.43,559.99" style="stroke:#37474F;stroke-width:1;stroke-linejoin:miter;stroke-miterlimit:10;"/><text fill="#000000" font-family="'Helvetica'" font-size="11" lengthAdjust="spacing" textLength="49.5161" x="379.0388" y="503.4702">successor</text><text fill="#000000" font-family="'Helvetica'" font-size="11" font-weight="700" lengthAdjust="spacing" textLength="58.3999" x="431.611" y="503.4702">c-NNNN@2</text><text fill="#000000" font-family="'Helvetica'" font-size="11" lengthAdjust="spacing" textLength="177.9497" x="345.55" y="514.4702">enters the next round as *contested*</text></g><?plantuml-src TLNRRjj647tdLmoS1oU4f42ARp6AeAuieGO28R1izA4gZ1Lt96wyt6LsbrBKkj-J_yYNTOPSogoSyC6mTWxFp9oTEJo6Ft8HG42cXIgEFVWW0a8c32mnimM2Cj3l5rRIeRFUurTH399Zk7CYGmbYBPJn0RpBtWgvGUU5Kq8_h9n28_rREf4g2tvGxk1rpVsmigv713wtbPOFKlbCEDc3PQNefw-o3BstxWq88y6NcC7tR-U3OP__ZWP9uX-LAOKJ1In5zhXsjZ9oRBLry6fQFns4n9MeT9XQ4sQ2UZdw7VK6Wyh4qOzHS_Ktml1T9-Xp8UrMcJMiXFROYLmvPxSnyxlpa_EJwM7mcN7O2TsfeF4vTD5jgL7_dmJWD-iakaX_Ud8sER_YqyEM9-F9T3gaIBTwWAiGd5fMePDdbFpRIMHic-S78bvCXeSLJDzVNOnE_vU72PF0pS2OXwSftlF0r9FIvr5HHWHbJP9eNDD0GB0bEBNE0r4z_V9gV34v6x__0FGyGK37UDsZOKJXF4tbckLuQh3JwVZwUlG2Qn0bG_EgeA6Ds4QMY1NKR8uEwYuXux63B1TcJSCTw0sggwcERgBM_oYZ9j47b4SWF8pROu-1kfNzginHDx7vFSJ23a4ELrNBCB-5sEeULPMqAoXRmFsdGuH48RND7YFY-kDXeigKpcxGrE7xJ-snChIsfSQ0TU1cjYTiDgtbkvdlCoP_fd_Had-0CLn6bORWXABwIA4a6TT1QlKIFbToJNTS6M5KOIklTmkJfeqWQTeYRt-AZAeyGwdnds5fOutiOFVLUN1OaE_4Sv9cJq5DYhL3x2sCiIrQuof4R9rkYTfkuKjbNLN4yvlPmVabY8Ln-ALIZbIesK5vA9JtP0P9GaHjJIA6cvbYoHX7unGnBFKbU3QWQ8T0Gx8mORklq5N6C2sLqRBIoBRP8h_3qZeIBqdcaPdlZPXRpuGqpVepUduTfUd280qnRH4J6VmQuitItQVx-KwJf7Q2fGt15c1NT26qGJFBduHIU3-0EtezYbihAodEbEIQI9qelWpUGs_ZlbAytSbRz5PNR00zTXpmIgF9SC0hLrlGY_JN7pazRdXT-UKDwRdSGI4-MwV2Rb3xKiY9IN913lcwg15MTabMKn20FnnSOIQqvlhuVwgHpEpOlqXTcn5dfWqYt-G1AgrNGMsURskRMnz584nZ8DmEhITl5lFZXWgYrYWVGUYBOTQEChBXGRkei5AEFfMlltyx6vo-wH6ED3DsQUKE6jVmxOUOUwOC1Cd5XYT0MqjEqAd-Fm00?></g></svg>