<svg xmlns="http://www.w3.org/2000/svg" xmlns:xlink="http://www.w3.org/1999/xlink" contentStyleType="text/css" data-diagram-type="ACTIVITY" height="2328px" preserveAspectRatio="none" style="width:622px;height:2328px;background:#FFFFFF;" version="1.1" viewBox="0 0 622 2328" width="622px" zoomAndPan="magnify"><?plantuml 1.2026.6?><defs/><g><g class="title" data-source-line="21"><text fill="#000000" font-family="'Helvetica'" font-size="18" font-weight="700" lengthAdjust="spacing" textLength="216.0088" x="202.252" y="33.8604">afriend run --mode report</text></g><g class="legend" data-source-line="23"><rect fill="none" height="56" rx="7.5" ry="7.5" style="stroke:#000000;stroke-width:1;" width="161.7578" x="436.7549" y="61"/><rect fill="#FFE0B2" height="14" style="stroke:none;stroke-width:1;" width="15.5586" x="441.7549" y="68"/><text fill="#000000" font-family="'Helvetica'" font-size="14" lengthAdjust="spacing" textLength="15.5586" x="441.7549" y="78.7803">&#160;&#160;&#160;&#160;</text><text fill="#000000" font-family="'Helvetica'" font-size="14" lengthAdjust="spacing" textLength="128.4199" x="461.2032" y="78.7803">recorded downgrade</text><rect fill="#FFCDD2" height="14" style="stroke:none;stroke-width:1;" width="15.5586" x="441.7549" y="82"/><text fill="#000000" font-family="'Helvetica'" font-size="14" lengthAdjust="spacing" textLength="15.5586" x="441.7549" y="92.7803">&#160;&#160;&#160;&#160;</text><text fill="#000000" font-family="'Helvetica'" font-size="14" lengthAdjust="spacing" textLength="72.3789" x="461.2032" y="92.7803">friend failed</text><rect fill="#C8E6C9" height="14" style="stroke:none;stroke-width:1;" width="15.5586" x="441.7549" y="96"/><text fill="#000000" font-family="'Helvetica'" font-size="14" lengthAdjust="spacing" textLength="15.5586" x="441.7549" y="106.7803">&#160;&#160;&#160;&#160;</text><text fill="#000000" font-family="'Helvetica'" font-size="14" lengthAdjust="spacing" textLength="50.5723" x="461.2032" y="106.7803">success</text><line style="stroke:#000000;stroke-width:1;" x1="441.7549" x2="593.5128" y1="68" y2="68"/><line style="stroke:#000000;stroke-width:1;" x1="441.7549" x2="593.5128" y1="82" y2="82"/><line style="stroke:#000000;stroke-width:1;" x1="441.7549" x2="593.5128" y1="96" y2="96"/><line style="stroke:#000000;stroke-width:1;" x1="441.7549" x2="593.5128" y1="110" y2="110"/><line style="stroke:#000000;stroke-width:1;" x1="441.7549" x2="441.7549" y1="68" y2="110"/><line style="stroke:#000000;stroke-width:1;" x1="457.3135" x2="457.3135" y1="68" y2="110"/><line style="stroke:#000000;stroke-width:1;" x1="593.5128" x2="593.5128" y1="68" y2="110"/></g><ellipse cx="289.1672" cy="145" fill="#222222" rx="10" ry="10" style="stroke:#222222;stroke-width:1;"/><rect fill="#E3F2FD" height="773.1328" style="stroke:#1565C0;stroke-width:1.5;" width="578.1123" x="16" y="165"/><path d="M131.4917,165 L131.4917,171 L121.4917,181 L16,181" fill="none" style="stroke:#1565C0;stroke-width:1.5;"/><text fill="#000000" font-family="'Helvetica'" font-size="13" lengthAdjust="spacing" textLength="105.4917" x="19" y="176.0103">Resolve the roster</text><rect fill="#ECEFF1" height="48.1328" rx="12.5" ry="12.5" style="stroke:#546E7A;stroke-width:1;" width="189.1206" x="194.6069" y="198"/><text fill="#000000" font-family="'Helvetica'" font-size="13" lengthAdjust="spacing" textLength="44.8081" x="204.6069" y="220.1431">validate</text><text fill="#000000" font-family="monospace" font-size="13" lengthAdjust="spacing" textLength="46.96" x="253.0268" y="220.0669">--mode</text><text fill="#000000" font-family="'Helvetica'" font-size="13" lengthAdjust="spacing" textLength="3.6118" x="303.5986" y="220.1431">/</text><text fill="#000000" font-family="monospace" font-size="13" lengthAdjust="spacing" textLength="62.6133" x="310.8222" y="220.0669">--preset</text><text fill="#000000" font-family="'Helvetica'" font-size="13" lengthAdjust="spacing" textLength="169.1206" x="204.6069" y="233.1431">load bundled adapter records</text><polygon fill="#FFF8E1" points="240.9211,266.1328,337.4133,266.1328,349.4133,278.1328,337.4133,290.1328,240.9211,290.1328,228.9211,278.1328,240.9211,266.1328" style="stroke:#F57F17;stroke-width:1;stroke-linejoin:miter;stroke-miterlimit:10;"/><text fill="#000000" font-family="monospace" font-size="12" lengthAdjust="spacing" textLength="57.7969" x="240.9211" y="282.2871">--friend</text><text fill="#000000" font-family="'Helvetica'" font-size="12" lengthAdjust="spacing" textLength="35.3613" x="302.0519" y="282.3574">given?</text><text fill="#000000" font-family="'Helvetica'" font-size="12" lengthAdjust="spacing" textLength="18.6738" x="210.2473" y="275.373">yes</text><text fill="#000000" font-family="'Helvetica'" font-size="12" lengthAdjust="spacing" textLength="13.3477" x="349.4133" y="275.373">no</text><rect fill="#ECEFF1" height="46" rx="12.5" ry="12.5" style="stroke:#546E7A;stroke-width:1;" width="181.8335" x="100.0314" y="300.1328"/><text fill="#000000" font-family="'Helvetica'" font-size="13" lengthAdjust="spacing" textLength="94.6436" x="110.0314" y="320.1431">specs from flags</text><text fill="#000000" font-family="'Helvetica'" font-size="13" lengthAdjust="spacing" textLength="161.8335" x="110.0314" y="333.1431">(replaces discovery entirely)</text><rect fill="#ECEFF1" height="46" rx="12.5" ry="12.5" style="stroke:#546E7A;stroke-width:1;" width="171.0425" x="301.8649" y="300.1328"/><text fill="#000000" font-family="'Helvetica'" font-size="13" lengthAdjust="spacing" textLength="135.1035" x="311.8649" y="320.1431">discover CLIs on PATH</text><text fill="#000000" font-family="'Helvetica'" font-size="13" lengthAdjust="spacing" textLength="151.0425" x="311.8649" y="333.1431">round-robin a lens to each</text><polygon fill="#FFF8E1" points="289.1672,352.1328,301.1672,364.1328,289.1672,376.1328,277.1672,364.1328,289.1672,352.1328" style="stroke:#F57F17;stroke-width:1;stroke-linejoin:miter;stroke-miterlimit:10;"/><rect fill="#ECEFF1" height="46" rx="12.5" ry="12.5" style="stroke:#546E7A;stroke-width:1;" width="257.0342" x="160.6501" y="396.1328"/><text fill="#000000" font-family="'Helvetica'" font-size="13" lengthAdjust="spacing" textLength="237.0342" x="170.6501" y="416.1431">detect host; Codex is included by default,</text><text fill="#000000" font-family="'Helvetica'" font-size="13" lengthAdjust="spacing" textLength="226.1924" x="170.6501" y="429.1431">other hosts excluded unless overridden</text><rect fill="#ECEFF1" height="46" rx="12.5" ry="12.5" style="stroke:#546E7A;stroke-width:1;" width="189.7935" x="194.2704" y="462.1328"/><text fill="#000000" font-family="'Helvetica'" font-size="13" lengthAdjust="spacing" textLength="169.7935" x="204.2704" y="482.1431">mark any host friend advisory</text><text fill="#000000" font-family="'Helvetica'" font-size="13" lengthAdjust="spacing" textLength="131.9233" x="204.2704" y="495.1431">and independent=false</text><rect fill="#ECEFF1" height="33" rx="12.5" ry="12.5" style="stroke:#546E7A;stroke-width:1;" width="170.3062" x="204.0141" y="576.1328"/><text fill="#000000" font-family="'Helvetica'" font-size="13" lengthAdjust="spacing" textLength="150.3062" x="214.0141" y="596.1431">exit 3 &#8212; no usable friends</text><ellipse cx="289.1672" cy="649.1328" fill="none" rx="11" ry="11" style="stroke:#222222;stroke-width:1;"/><ellipse cx="289.1672" cy="649.1328" fill="#222222" rx="6" ry="6" style="stroke:#222222;stroke-width:1;"/><polygon fill="#FFF8E1" points="256.4807,528.1328,321.8537,528.1328,333.8537,540.1328,321.8537,552.1328,256.4807,552.1328,244.4807,540.1328,256.4807,528.1328" style="stroke:#F57F17;stroke-width:1;stroke-linejoin:miter;stroke-miterlimit:10;"/><text fill="#000000" font-family="'Helvetica'" font-size="12" lengthAdjust="spacing" textLength="13.3477" x="293.1672" y="561.373">no</text><text fill="#000000" font-family="'Helvetica'" font-size="12" lengthAdjust="spacing" textLength="65.373" x="256.4807" y="543.373">any friends?</text><polygon fill="#FFF8E1" points="247.4807,702.1328,330.8537,702.1328,342.8537,714.1328,330.8537,726.1328,247.4807,726.1328,235.4807,714.1328,247.4807,702.1328" style="stroke:#F57F17;stroke-width:1;stroke-linejoin:miter;stroke-miterlimit:10;"/><text fill="#000000" font-family="monospace" font-size="12" lengthAdjust="spacing" textLength="43.3477" x="247.4807" y="718.2871">report</text><text fill="#000000" font-family="'Helvetica'" font-size="12" lengthAdjust="spacing" textLength="36.6914" x="294.1623" y="718.3574">mode?</text><text fill="#000000" font-family="'Helvetica'" font-size="12" lengthAdjust="spacing" textLength="18.6738" x="216.8068" y="711.373">yes</text><text fill="#000000" font-family="'Helvetica'" font-size="12" lengthAdjust="spacing" textLength="38.7012" x="342.8537" y="711.373">judging</text><rect fill="#FFE0B2" height="33" rx="12.5" ry="12.5" style="stroke:#546E7A;stroke-width:1;" width="228.1206" x="28.9052" y="784.1328"/><text fill="#000000" font-family="'Helvetica'" font-size="13" lengthAdjust="spacing" textLength="208.1206" x="38.9052" y="804.1431">report: record one-friend downgrade</text><polygon fill="#FFF8E1" points="68.2556,736.1328,217.6755,736.1328,229.6755,748.1328,217.6755,760.1328,68.2556,760.1328,56.2556,748.1328,68.2556,736.1328" style="stroke:#F57F17;stroke-width:1;stroke-linejoin:miter;stroke-miterlimit:10;"/><text fill="#000000" font-family="'Helvetica'" font-size="12" lengthAdjust="spacing" textLength="18.6738" x="146.9655" y="769.373">yes</text><text fill="#000000" font-family="'Helvetica'" font-size="12" lengthAdjust="spacing" textLength="149.4199" x="68.2556" y="751.373">exactly one resolved friend?</text><polygon fill="#FFF8E1" points="142.9655,841.1328,154.9655,853.1328,142.9655,865.1328,130.9655,853.1328,142.9655,841.1328" style="stroke:#F57F17;stroke-width:1;stroke-linejoin:miter;stroke-miterlimit:10;"/><rect fill="#ECEFF1" height="33" rx="12.5" ry="12.5" style="stroke:#546E7A;stroke-width:1;" width="252.686" x="309.0258" y="784.1328"/><text fill="#000000" font-family="'Helvetica'" font-size="13" lengthAdjust="spacing" textLength="232.686" x="319.0258" y="804.1431">judging mode: exit 3 before run directory</text><ellipse cx="435.3688" cy="863.1328" fill="none" rx="11" ry="11" style="stroke:#222222;stroke-width:1;"/><ellipse cx="435.3688" cy="863.1328" fill="#222222" rx="6" ry="6" style="stroke:#222222;stroke-width:1;"/><polygon fill="#FFF8E1" points="361.6491,736.1328,509.0886,736.1328,521.0886,748.1328,509.0886,760.1328,361.6491,760.1328,349.6491,748.1328,361.6491,736.1328" style="stroke:#F57F17;stroke-width:1;stroke-linejoin:miter;stroke-miterlimit:10;"/><text fill="#000000" font-family="'Helvetica'" font-size="12" lengthAdjust="spacing" textLength="18.6738" x="439.3688" y="769.373">yes</text><text fill="#000000" font-family="'Helvetica'" font-size="12" lengthAdjust="spacing" textLength="147.4395" x="361.6491" y="745.373">fewer than two independent</text><text fill="#000000" font-family="'Helvetica'" font-size="12" lengthAdjust="spacing" textLength="92.7246" x="361.6491" y="757.373">non-host friends?</text><polygon fill="#FFF8E1" points="289.1672,902.1328,301.1672,914.1328,289.1672,926.1328,277.1672,914.1328,289.1672,902.1328" style="stroke:#F57F17;stroke-width:1;stroke-linejoin:miter;stroke-miterlimit:10;"/><rect fill="#E3F2FD" height="342" style="stroke:#1565C0;stroke-width:1.5;" width="298.667" x="139.8337" y="948.1328"/><path d="M196.0827,948.1328 L196.0827,954.1328 L186.0827,964.1328 L139.8337,964.1328" fill="none" style="stroke:#1565C0;stroke-width:1.5;"/><text fill="#000000" font-family="'Helvetica'" font-size="13" lengthAdjust="spacing" textLength="46.249" x="142.8337" y="959.1431">Prepare</text><rect fill="#ECEFF1" height="33" rx="12.5" ry="12.5" style="stroke:#546E7A;stroke-width:1;" width="216.498" x="180.9182" y="981.1328"/><text fill="#000000" font-family="'Helvetica'" font-size="13" lengthAdjust="spacing" textLength="196.498" x="190.9182" y="1001.1431">install SIGINT/SIGTERM handlers</text><rect fill="#FFE0B2" height="46" rx="12.5" ry="12.5" style="stroke:#546E7A;stroke-width:1;" width="243.2788" x="167.5278" y="1034.1328"/><text fill="#000000" font-family="'Helvetica'" font-size="13" lengthAdjust="spacing" textLength="158.5518" x="177.5278" y="1054.1431">resolve the artifact's git root</text><text fill="#000000" font-family="'Helvetica'" font-size="13" lengthAdjust="spacing" textLength="223.2788" x="177.5278" y="1067.1431">(none &#8594; force all friends to doc scope)</text><rect fill="#ECEFF1" height="33" rx="12.5" ry="12.5" style="stroke:#546E7A;stroke-width:1;" width="216.9043" x="180.715" y="1100.1328"/><text fill="#000000" font-family="'Helvetica'" font-size="13" lengthAdjust="spacing" textLength="196.9043" x="190.715" y="1120.1431">create run dir, copy + hash artifact</text><rect fill="#FFE0B2" height="59" rx="12.5" ry="12.5" style="stroke:#546E7A;stroke-width:1;" width="278.667" x="149.8337" y="1153.1328"/><text fill="#000000" font-family="'Helvetica'" font-size="13" lengthAdjust="spacing" textLength="215.2871" x="159.8337" y="1173.1431">per friend: build its OWN prompt from</text><text fill="#000000" font-family="'Helvetica'" font-size="13" lengthAdjust="spacing" textLength="254.3188" x="159.8337" y="1186.1431">its OWN lens, write round-1/&lt;friend&gt;.prompt</text><text fill="#000000" font-family="'Helvetica'" font-size="13" lengthAdjust="spacing" textLength="258.667" x="159.8337" y="1199.1431">(missing lens &#8594; generic prompt, downgrade)</text><rect fill="#ECEFF1" height="46" rx="12.5" ry="12.5" style="stroke:#546E7A;stroke-width:1;" width="245.0688" x="166.6328" y="1232.1328"/><text fill="#000000" font-family="'Helvetica'" font-size="13" lengthAdjust="spacing" textLength="205.2324" x="176.6328" y="1252.1431">if any friend is repo scope, take one</text><text fill="#000000" font-family="'Helvetica'" font-size="13" lengthAdjust="spacing" textLength="225.0688" x="176.6328" y="1265.1431">snapshot commit (tracked + untracked)</text><rect fill="#E3F2FD" height="536.1328" style="stroke:#1565C0;stroke-width:1.5;" width="574.5128" x="28" y="1300.1328"/><path d="M278.6333,1300.1328 L278.6333,1306.1328 L268.6333,1316.1328 L28,1316.1328" fill="none" style="stroke:#1565C0;stroke-width:1.5;"/><text fill="#000000" font-family="'Helvetica'" font-size="13" lengthAdjust="spacing" textLength="240.6333" x="31" y="1311.1431">Dispatch &#8212; parallel, one thread per friend</text><polygon fill="#FFF8E1" points="194.1076,1333.1328,384.2267,1333.1328,396.2267,1345.1328,384.2267,1357.1328,194.1076,1357.1328,182.1076,1345.1328,194.1076,1333.1328" style="stroke:#F57F17;stroke-width:1;stroke-linejoin:miter;stroke-miterlimit:10;"/><text fill="#000000" font-family="'Helvetica'" font-size="12" lengthAdjust="spacing" textLength="190.1191" x="194.1076" y="1348.373">adapter has a real read-only mode?</text><text fill="#000000" font-family="'Helvetica'" font-size="12" lengthAdjust="spacing" textLength="18.6738" x="163.4338" y="1342.373">yes</text><text fill="#000000" font-family="'Helvetica'" font-size="12" lengthAdjust="spacing" textLength="13.3477" x="396.2267" y="1342.373">no</text><rect fill="#ECEFF1" height="46" rx="12.5" ry="12.5" style="stroke:#546E7A;stroke-width:1;" width="167.418" x="88.3986" y="1367.1328"/><text fill="#000000" font-family="'Helvetica'" font-size="13" lengthAdjust="spacing" textLength="109.8208" x="98.3986" y="1387.1431">private git worktree</text><text fill="#000000" font-family="'Helvetica'" font-size="13" lengthAdjust="spacing" textLength="147.418" x="98.3986" y="1400.1431">from the shared snapshot</text><rect fill="#ECEFF1" height="33" rx="12.5" ry="12.5" style="stroke:#546E7A;stroke-width:1;" width="182.5762" x="314.9387" y="1367.1328"/><text fill="#000000" font-family="'Helvetica'" font-size="13" lengthAdjust="spacing" textLength="162.5762" x="324.9387" y="1387.1431">bare dir with only the artifact</text><polygon fill="#FFF8E1" points="289.1672,1419.1328,301.1672,1431.1328,289.1672,1443.1328,277.1672,1431.1328,289.1672,1419.1328" style="stroke:#F57F17;stroke-width:1;stroke-linejoin:miter;stroke-miterlimit:10;"/><rect fill="#ECEFF1" height="46" rx="12.5" ry="12.5" style="stroke:#546E7A;stroke-width:1;" width="212.2007" x="183.0668" y="1463.1328"/><text fill="#000000" font-family="'Helvetica'" font-size="13" lengthAdjust="spacing" textLength="186.7925" x="193.0668" y="1483.1431">build argv; capability = what was</text><text fill="#000000" font-family="'Helvetica'" font-size="13" lengthAdjust="spacing" textLength="192.2007" x="193.0668" y="1496.1431">actually emitted, never re-derived</text><rect fill="#ECEFF1" height="48.1328" rx="12.5" ry="12.5" style="stroke:#546E7A;stroke-width:1;" width="226.3179" x="176.0082" y="1529.1328"/><text fill="#000000" font-family="'Helvetica'" font-size="13" lengthAdjust="spacing" textLength="181.3716" x="186.0082" y="1549.1431">spawn in its own process group</text><text fill="#000000" font-family="'Helvetica'" font-size="13" lengthAdjust="spacing" textLength="60.3599" x="186.0082" y="1564.2759">deadline =</text><text fill="#000000" font-family="monospace" font-size="13" lengthAdjust="spacing" textLength="70.4399" x="249.9799" y="1564.1997">--timeout</text><text fill="#000000" font-family="'Helvetica'" font-size="13" lengthAdjust="spacing" textLength="68.2944" x="324.0317" y="1564.2759">+ 60s grace</text><polygon fill="#FFF8E1" points="235.8,1597.2656,342.5344,1597.2656,354.5344,1609.2656,342.5344,1621.2656,235.8,1621.2656,223.8,1609.2656,235.8,1597.2656" style="stroke:#F57F17;stroke-width:1;stroke-linejoin:miter;stroke-miterlimit:10;"/><text fill="#000000" font-family="'Helvetica'" font-size="12" lengthAdjust="spacing" textLength="106.7344" x="235.8" y="1612.5059">timed out / aborted?</text><text fill="#000000" font-family="'Helvetica'" font-size="12" lengthAdjust="spacing" textLength="18.6738" x="205.1262" y="1606.5059">yes</text><text fill="#000000" font-family="'Helvetica'" font-size="12" lengthAdjust="spacing" textLength="13.3477" x="354.5344" y="1606.5059">no</text><rect fill="#FFCDD2" height="33" rx="12.5" ry="12.5" style="stroke:#546E7A;stroke-width:1;" width="223.0425" x="48" y="1631.2656"/><text fill="#000000" font-family="'Helvetica'" font-size="13" lengthAdjust="spacing" textLength="203.0425" x="58" y="1651.2759">SIGTERM the group, then SIGKILL</text><rect fill="#ECEFF1" height="46" rx="12.5" ry="12.5" style="stroke:#546E7A;stroke-width:1;" width="215.4189" x="311.1036" y="1631.2656"/><text fill="#000000" font-family="'Helvetica'" font-size="13" lengthAdjust="spacing" textLength="195.4189" x="321.1036" y="1651.2759">unwrap the CLI's JSON envelope,</text><text fill="#000000" font-family="'Helvetica'" font-size="13" lengthAdjust="spacing" textLength="195.0635" x="321.1036" y="1664.2759">strip ANSI, extract JSON, validate</text><polygon fill="#FFF8E1" points="375.111,1697.2656,462.5153,1697.2656,474.5153,1709.2656,462.5153,1721.2656,375.111,1721.2656,363.111,1709.2656,375.111,1697.2656" style="stroke:#F57F17;stroke-width:1;stroke-linejoin:miter;stroke-miterlimit:10;"/><text fill="#000000" font-family="'Helvetica'" font-size="12" lengthAdjust="spacing" textLength="87.4043" x="375.111" y="1712.5059">usable payload?</text><text fill="#000000" font-family="'Helvetica'" font-size="12" lengthAdjust="spacing" textLength="18.6738" x="344.4371" y="1706.5059">yes</text><text fill="#000000" font-family="'Helvetica'" font-size="12" lengthAdjust="spacing" textLength="13.3477" x="474.5153" y="1706.5059">no</text><rect fill="#ECEFF1" height="33" rx="12.5" ry="12.5" style="stroke:#546E7A;stroke-width:1;" width="85.0063" x="301.0425" y="1731.2656"/><text fill="#000000" font-family="'Helvetica'" font-size="13" lengthAdjust="spacing" textLength="65.0063" x="311.0425" y="1751.2759">emit claims</text><rect fill="#FFCDD2" height="33" rx="12.5" ry="12.5" style="stroke:#546E7A;stroke-width:1;" width="176.0635" x="406.0488" y="1731.2656"/><text fill="#000000" font-family="'Helvetica'" font-size="13" lengthAdjust="spacing" textLength="156.0635" x="416.0488" y="1751.2759">mark failed, keep stderr tail</text><polygon fill="#FFF8E1" points="418.8131,1770.2656,430.8131,1782.2656,418.8131,1794.2656,406.8131,1782.2656,418.8131,1770.2656" style="stroke:#F57F17;stroke-width:1;stroke-linejoin:miter;stroke-miterlimit:10;"/><polygon fill="#FFF8E1" points="289.1672,1800.2656,301.1672,1812.2656,289.1672,1824.2656,277.1672,1812.2656,289.1672,1800.2656" style="stroke:#F57F17;stroke-width:1;stroke-linejoin:miter;stroke-miterlimit:10;"/><rect fill="#E3F2FD" height="303" style="stroke:#1565C0;stroke-width:1.5;" width="300.0889" x="139.1227" y="1846.2656"/><path d="M235.8254,1846.2656 L235.8254,1852.2656 L225.8254,1862.2656 L139.1227,1862.2656" fill="none" style="stroke:#1565C0;stroke-width:1.5;"/><text fill="#000000" font-family="'Helvetica'" font-size="13" lengthAdjust="spacing" textLength="86.7026" x="142.1227" y="1857.2759">Merge &amp; report</text><rect fill="#ECEFF1" height="33" rx="12.5" ry="12.5" style="stroke:#546E7A;stroke-width:1;" width="260.6206" x="158.8569" y="1879.2656"/><text fill="#000000" font-family="'Helvetica'" font-size="13" lengthAdjust="spacing" textLength="240.6206" x="168.8569" y="1899.2759">tear down every worktree and isolation dir</text><rect fill="#ECEFF1" height="33" rx="12.5" ry="12.5" style="stroke:#546E7A;stroke-width:1;" width="280.0889" x="149.1227" y="1932.2656"/><text fill="#000000" font-family="'Helvetica'" font-size="13" lengthAdjust="spacing" textLength="260.0889" x="159.1227" y="1952.2759">write &lt;friend&gt;.raw / .meta / .err &#8212; pass or fail</text><rect fill="#ECEFF1" height="46" rx="12.5" ry="12.5" style="stroke:#546E7A;stroke-width:1;" width="277.9243" x="150.205" y="1985.2656"/><text fill="#000000" font-family="'Helvetica'" font-size="13" lengthAdjust="spacing" textLength="257.9243" x="160.205" y="2005.2759">exact-merge claims: identical claims become</text><text fill="#000000" font-family="'Helvetica'" font-size="13" lengthAdjust="spacing" textLength="253.627" x="160.205" y="2018.2759">aliases, origins accumulate as corroboration</text><rect fill="#ECEFF1" height="33" rx="12.5" ry="12.5" style="stroke:#546E7A;stroke-width:1;" width="279.3843" x="149.475" y="2051.2656"/><text fill="#000000" font-family="'Helvetica'" font-size="13" lengthAdjust="spacing" textLength="259.3843" x="159.475" y="2071.2759">append every claim AND alias to claims.jsonl</text><rect fill="#ECEFF1" height="33" rx="12.5" ry="12.5" style="stroke:#546E7A;stroke-width:1;" width="262.4106" x="157.9619" y="2104.2656"/><text fill="#000000" font-family="'Helvetica'" font-size="13" lengthAdjust="spacing" textLength="242.4106" x="167.9619" y="2124.2759">write run.json + report.md, print the run dir</text><polygon fill="#FFF8E1" points="240.133,2169.2656,338.2014,2169.2656,350.2014,2181.2656,338.2014,2193.2656,240.133,2193.2656,228.133,2181.2656,240.133,2169.2656" style="stroke:#F57F17;stroke-width:1;stroke-linejoin:miter;stroke-miterlimit:10;"/><text fill="#000000" font-family="'Helvetica'" font-size="12" lengthAdjust="spacing" textLength="98.0684" x="240.133" y="2184.5059">any friend usable?</text><text fill="#000000" font-family="'Helvetica'" font-size="12" lengthAdjust="spacing" textLength="18.6738" x="209.4592" y="2178.5059">yes</text><text fill="#000000" font-family="'Helvetica'" font-size="12" lengthAdjust="spacing" textLength="13.3477" x="350.2014" y="2178.5059">no</text><rect fill="#C8E6C9" height="33" rx="12.5" ry="12.5" style="stroke:#546E7A;stroke-width:1;" width="51.0718" x="192.5971" y="2203.2656"/><text fill="#000000" font-family="'Helvetica'" font-size="13" lengthAdjust="spacing" textLength="31.0718" x="202.5971" y="2223.2759">exit 0</text><rect fill="#FFCDD2" height="33" rx="12.5" ry="12.5" style="stroke:#546E7A;stroke-width:1;" width="156.5635" x="281.9196" y="2203.2656"/><text fill="#000000" font-family="'Helvetica'" font-size="13" lengthAdjust="spacing" textLength="136.5635" x="291.9196" y="2223.2759">exit 1 &#8212; run incomplete</text><polygon fill="#FFF8E1" points="289.1672,2242.2656,301.1672,2254.2656,289.1672,2266.2656,277.1672,2254.2656,289.1672,2242.2656" style="stroke:#F57F17;stroke-width:1;stroke-linejoin:miter;stroke-miterlimit:10;"/><ellipse cx="289.1672" cy="2297.2656" fill="none" rx="11" ry="11" style="stroke:#222222;stroke-width:1;"/><ellipse cx="289.1672" cy="2297.2656" fill="#222222" rx="6" ry="6" style="stroke:#222222;stroke-width:1;"/><line style="stroke:#37474F;stroke-width:1;" x1="228.9211" x2="190.9482" y1="278.1328" y2="278.1328"/><line style="stroke:#37474F;stroke-width:1;" x1="190.9482" x2="190.9482" y1="278.1328" y2="300.1328"/><polygon fill="#37474F" points="186.9482,290.1328,190.9482,300.1328,194.9482,290.1328,190.9482,294.1328" style="stroke:#37474F;stroke-width:1;stroke-linejoin:miter;stroke-miterlimit:10;"/><line style="stroke:#37474F;stroke-width:1;" x1="349.4133" x2="387.3862" y1="278.1328" y2="278.1328"/><line style="stroke:#37474F;stroke-width:1;" x1="387.3862" x2="387.3862" y1="278.1328" y2="300.1328"/><polygon fill="#37474F" points="383.3862,290.1328,387.3862,300.1328,391.3862,290.1328,387.3862,294.1328" style="stroke:#37474F;stroke-width:1;stroke-linejoin:miter;stroke-miterlimit:10;"/><line style="stroke:#37474F;stroke-width:1;" x1="190.9482" x2="190.9482" y1="346.1328" y2="364.1328"/><line style="stroke:#37474F;stroke-width:1;" x1="190.9482" x2="277.1672" y1="364.1328" y2="364.1328"/><polygon fill="#37474F" points="267.1672,360.1328,277.1672,364.1328,267.1672,368.1328,271.1672,364.1328" style="stroke:#37474F;stroke-width:1;stroke-linejoin:miter;stroke-miterlimit:10;"/><line style="stroke:#37474F;stroke-width:1;" x1="387.3862" x2="387.3862" y1="346.1328" y2="364.1328"/><line style="stroke:#37474F;stroke-width:1;" x1="387.3862" x2="301.1672" y1="364.1328" y2="364.1328"/><polygon fill="#37474F" points="311.1672,360.1328,301.1672,364.1328,311.1672,368.1328,307.1672,364.1328" style="stroke:#37474F;stroke-width:1;stroke-linejoin:miter;stroke-miterlimit:10;"/><line style="stroke:#37474F;stroke-width:1;" x1="289.1672" x2="289.1672" y1="246.1328" y2="266.1328"/><polygon fill="#37474F" points="285.1672,256.1328,289.1672,266.1328,293.1672,256.1328,289.1672,260.1328" style="stroke:#37474F;stroke-width:1;stroke-linejoin:miter;stroke-miterlimit:10;"/><line style="stroke:#37474F;stroke-width:1;" x1="289.1672" x2="289.1672" y1="376.1328" y2="396.1328"/><polygon fill="#37474F" points="285.1672,386.1328,289.1672,396.1328,293.1672,386.1328,289.1672,390.1328" style="stroke:#37474F;stroke-width:1;stroke-linejoin:miter;stroke-miterlimit:10;"/><line style="stroke:#37474F;stroke-width:1;" x1="289.1672" x2="289.1672" y1="442.1328" y2="462.1328"/><polygon fill="#37474F" points="285.1672,452.1328,289.1672,462.1328,293.1672,452.1328,289.1672,456.1328" style="stroke:#37474F;stroke-width:1;stroke-linejoin:miter;stroke-miterlimit:10;"/><line style="stroke:#37474F;stroke-width:1;" x1="289.1672" x2="289.1672" y1="609.1328" y2="638.1328"/><polygon fill="#37474F" points="285.1672,628.1328,289.1672,638.1328,293.1672,628.1328,289.1672,632.1328" style="stroke:#37474F;stroke-width:1;stroke-linejoin:miter;stroke-miterlimit:10;"/><line style="stroke:#37474F;stroke-width:1;" x1="289.1672" x2="289.1672" y1="552.1328" y2="576.1328"/><polygon fill="#37474F" points="285.1672,566.1328,289.1672,576.1328,293.1672,566.1328,289.1672,570.1328" style="stroke:#37474F;stroke-width:1;stroke-linejoin:miter;stroke-miterlimit:10;"/><line style="stroke:#37474F;stroke-width:1;" x1="333.8537" x2="384.3203" y1="540.1328" y2="540.1328"/><polygon fill="#37474F" points="380.3203,608.1328,384.3203,618.1328,388.3203,608.1328,384.3203,612.1328" style="stroke:#37474F;stroke-width:1;stroke-linejoin:miter;stroke-miterlimit:10;"/><line style="stroke:#37474F;stroke-width:1;" x1="384.3203" x2="384.3203" y1="540.1328" y2="682.1328"/><line style="stroke:#37474F;stroke-width:1;" x1="384.3203" x2="289.1672" y1="682.1328" y2="682.1328"/><line style="stroke:#37474F;stroke-width:1;" x1="289.1672" x2="289.1672" y1="682.1328" y2="702.1328"/><polygon fill="#37474F" points="285.1672,692.1328,289.1672,702.1328,293.1672,692.1328,289.1672,696.1328" style="stroke:#37474F;stroke-width:1;stroke-linejoin:miter;stroke-miterlimit:10;"/><line style="stroke:#37474F;stroke-width:1;" x1="289.1672" x2="289.1672" y1="508.1328" y2="528.1328"/><polygon fill="#37474F" points="285.1672,518.1328,289.1672,528.1328,293.1672,518.1328,289.1672,522.1328" style="stroke:#37474F;stroke-width:1;stroke-linejoin:miter;stroke-miterlimit:10;"/><line style="stroke:#37474F;stroke-width:1;" x1="142.9655" x2="142.9655" y1="760.1328" y2="784.1328"/><polygon fill="#37474F" points="138.9655,774.1328,142.9655,784.1328,146.9655,774.1328,142.9655,778.1328" style="stroke:#37474F;stroke-width:1;stroke-linejoin:miter;stroke-miterlimit:10;"/><line style="stroke:#37474F;stroke-width:1;" x1="229.6755" x2="267.0258" y1="748.1328" y2="748.1328"/><polygon fill="#37474F" points="263.0258,790.6328,267.0258,800.6328,271.0258,790.6328,267.0258,794.6328" style="stroke:#37474F;stroke-width:1;stroke-linejoin:miter;stroke-miterlimit:10;"/><line style="stroke:#37474F;stroke-width:1;" x1="267.0258" x2="267.0258" y1="748.1328" y2="853.1328"/><line style="stroke:#37474F;stroke-width:1;" x1="267.0258" x2="154.9655" y1="853.1328" y2="853.1328"/><polygon fill="#37474F" points="164.9655,849.1328,154.9655,853.1328,164.9655,857.1328,160.9655,853.1328" style="stroke:#37474F;stroke-width:1;stroke-linejoin:miter;stroke-miterlimit:10;"/><line style="stroke:#37474F;stroke-width:1;" x1="142.9655" x2="142.9655" y1="817.1328" y2="841.1328"/><polygon fill="#37474F" points="138.9655,831.1328,142.9655,841.1328,146.9655,831.1328,142.9655,835.1328" style="stroke:#37474F;stroke-width:1;stroke-linejoin:miter;stroke-miterlimit:10;"/><line style="stroke:#37474F;stroke-width:1;" x1="435.3688" x2="435.3688" y1="817.1328" y2="852.1328"/><polygon fill="#37474F" points="431.3688,842.1328,435.3688,852.1328,439.3688,842.1328,435.3688,846.1328" style="stroke:#37474F;stroke-width:1;stroke-linejoin:miter;stroke-miterlimit:10;"/><line style="stroke:#37474F;stroke-width:1;" x1="435.3688" x2="435.3688" y1="760.1328" y2="784.1328"/><polygon fill="#37474F" points="431.3688,774.1328,435.3688,784.1328,439.3688,774.1328,435.3688,778.1328" style="stroke:#37474F;stroke-width:1;stroke-linejoin:miter;stroke-miterlimit:10;"/><line style="stroke:#37474F;stroke-width:1;" x1="521.0886" x2="571.7119" y1="748.1328" y2="748.1328"/><polygon fill="#37474F" points="567.7119,825.1328,571.7119,835.1328,575.7119,825.1328,571.7119,829.1328" style="stroke:#37474F;stroke-width:1;stroke-linejoin:miter;stroke-miterlimit:10;"/><line style="stroke:#37474F;stroke-width:1;" x1="571.7119" x2="571.7119" y1="748.1328" y2="914.1328"/><line style="stroke:#37474F;stroke-width:1;" x1="571.7119" x2="301.1672" y1="914.1328" y2="914.1328"/><polygon fill="#37474F" points="311.1672,910.1328,301.1672,914.1328,311.1672,918.1328,307.1672,914.1328" style="stroke:#37474F;stroke-width:1;stroke-linejoin:miter;stroke-miterlimit:10;"/><line style="stroke:#37474F;stroke-width:1;" x1="235.4807" x2="142.9655" y1="714.1328" y2="714.1328"/><line style="stroke:#37474F;stroke-width:1;" x1="142.9655" x2="142.9655" y1="714.1328" y2="736.1328"/><polygon fill="#37474F" points="138.9655,726.1328,142.9655,736.1328,146.9655,726.1328,142.9655,730.1328" style="stroke:#37474F;stroke-width:1;stroke-linejoin:miter;stroke-miterlimit:10;"/><line style="stroke:#37474F;stroke-width:1;" x1="342.8537" x2="435.3688" y1="714.1328" y2="714.1328"/><line style="stroke:#37474F;stroke-width:1;" x1="435.3688" x2="435.3688" y1="714.1328" y2="736.1328"/><polygon fill="#37474F" points="431.3688,726.1328,435.3688,736.1328,439.3688,726.1328,435.3688,730.1328" style="stroke:#37474F;stroke-width:1;stroke-linejoin:miter;stroke-miterlimit:10;"/><line style="stroke:#37474F;stroke-width:1;" x1="142.9655" x2="142.9655" y1="865.1328" y2="914.1328"/><line style="stroke:#37474F;stroke-width:1;" x1="142.9655" x2="277.1672" y1="914.1328" y2="914.1328"/><polygon fill="#37474F" points="267.1672,910.1328,277.1672,914.1328,267.1672,918.1328,271.1672,914.1328" style="stroke:#37474F;stroke-width:1;stroke-linejoin:miter;stroke-miterlimit:10;"/><line style="stroke:#37474F;stroke-width:1;" x1="289.1672" x2="289.1672" y1="155" y2="198"/><polygon fill="#37474F" points="285.1672,188,289.1672,198,293.1672,188,289.1672,192" style="stroke:#37474F;stroke-width:1;stroke-linejoin:miter;stroke-miterlimit:10;"/><line style="stroke:#37474F;stroke-width:1;" x1="289.1672" x2="289.1672" y1="1014.1328" y2="1034.1328"/><polygon fill="#37474F" points="285.1672,1024.1328,289.1672,1034.1328,293.1672,1024.1328,289.1672,1028.1328" style="stroke:#37474F;stroke-width:1;stroke-linejoin:miter;stroke-miterlimit:10;"/><line style="stroke:#37474F;stroke-width:1;" x1="289.1672" x2="289.1672" y1="1080.1328" y2="1100.1328"/><polygon fill="#37474F" points="285.1672,1090.1328,289.1672,1100.1328,293.1672,1090.1328,289.1672,1094.1328" style="stroke:#37474F;stroke-width:1;stroke-linejoin:miter;stroke-miterlimit:10;"/><line style="stroke:#37474F;stroke-width:1;" x1="289.1672" x2="289.1672" y1="1133.1328" y2="1153.1328"/><polygon fill="#37474F" points="285.1672,1143.1328,289.1672,1153.1328,293.1672,1143.1328,289.1672,1147.1328" style="stroke:#37474F;stroke-width:1;stroke-linejoin:miter;stroke-miterlimit:10;"/><line style="stroke:#37474F;stroke-width:1;" x1="289.1672" x2="289.1672" y1="1212.1328" y2="1232.1328"/><polygon fill="#37474F" points="285.1672,1222.1328,289.1672,1232.1328,293.1672,1222.1328,289.1672,1226.1328" style="stroke:#37474F;stroke-width:1;stroke-linejoin:miter;stroke-miterlimit:10;"/><line style="stroke:#37474F;stroke-width:1;" x1="289.1672" x2="289.1672" y1="926.1328" y2="981.1328"/><polygon fill="#37474F" points="285.1672,971.1328,289.1672,981.1328,293.1672,971.1328,289.1672,975.1328" style="stroke:#37474F;stroke-width:1;stroke-linejoin:miter;stroke-miterlimit:10;"/><line style="stroke:#37474F;stroke-width:1;" x1="182.1076" x2="172.1076" y1="1345.1328" y2="1345.1328"/><line style="stroke:#37474F;stroke-width:1;" x1="172.1076" x2="172.1076" y1="1345.1328" y2="1367.1328"/><polygon fill="#37474F" points="168.1076,1357.1328,172.1076,1367.1328,176.1076,1357.1328,172.1076,1361.1328" style="stroke:#37474F;stroke-width:1;stroke-linejoin:miter;stroke-miterlimit:10;"/><line style="stroke:#37474F;stroke-width:1;" x1="396.2267" x2="406.2267" y1="1345.1328" y2="1345.1328"/><line style="stroke:#37474F;stroke-width:1;" x1="406.2267" x2="406.2267" y1="1345.1328" y2="1367.1328"/><polygon fill="#37474F" points="402.2267,1357.1328,406.2267,1367.1328,410.2267,1357.1328,406.2267,1361.1328" style="stroke:#37474F;stroke-width:1;stroke-linejoin:miter;stroke-miterlimit:10;"/><line style="stroke:#37474F;stroke-width:1;" x1="172.1076" x2="172.1076" y1="1413.1328" y2="1431.1328"/><line style="stroke:#37474F;stroke-width:1;" x1="172.1076" x2="277.1672" y1="1431.1328" y2="1431.1328"/><polygon fill="#37474F" points="267.1672,1427.1328,277.1672,1431.1328,267.1672,1435.1328,271.1672,1431.1328" style="stroke:#37474F;stroke-width:1;stroke-linejoin:miter;stroke-miterlimit:10;"/><line style="stroke:#37474F;stroke-width:1;" x1="406.2267" x2="406.2267" y1="1400.1328" y2="1431.1328"/><line style="stroke:#37474F;stroke-width:1;" x1="406.2267" x2="301.1672" y1="1431.1328" y2="1431.1328"/><polygon fill="#37474F" points="311.1672,1427.1328,301.1672,1431.1328,311.1672,1435.1328,307.1672,1431.1328" style="stroke:#37474F;stroke-width:1;stroke-linejoin:miter;stroke-miterlimit:10;"/><line style="stroke:#37474F;stroke-width:1;" x1="289.1672" x2="289.1672" y1="1443.1328" y2="1463.1328"/><polygon fill="#37474F" points="285.1672,1453.1328,289.1672,1463.1328,293.1672,1453.1328,289.1672,1457.1328" style="stroke:#37474F;stroke-width:1;stroke-linejoin:miter;stroke-miterlimit:10;"/><line style="stroke:#37474F;stroke-width:1;" x1="289.1672" x2="289.1672" y1="1509.1328" y2="1529.1328"/><polygon fill="#37474F" points="285.1672,1519.1328,289.1672,1529.1328,293.1672,1519.1328,289.1672,1523.1328" style="stroke:#37474F;stroke-width:1;stroke-linejoin:miter;stroke-miterlimit:10;"/><line style="stroke:#37474F;stroke-width:1;" x1="363.111" x2="343.5457" y1="1709.2656" y2="1709.2656"/><line style="stroke:#37474F;stroke-width:1;" x1="343.5457" x2="343.5457" y1="1709.2656" y2="1731.2656"/><polygon fill="#37474F" points="339.5457,1721.2656,343.5457,1731.2656,347.5457,1721.2656,343.5457,1725.2656" style="stroke:#37474F;stroke-width:1;stroke-linejoin:miter;stroke-miterlimit:10;"/><line style="stroke:#37474F;stroke-width:1;" x1="474.5153" x2="494.0806" y1="1709.2656" y2="1709.2656"/><line style="stroke:#37474F;stroke-width:1;" x1="494.0806" x2="494.0806" y1="1709.2656" y2="1731.2656"/><polygon fill="#37474F" points="490.0806,1721.2656,494.0806,1731.2656,498.0806,1721.2656,494.0806,1725.2656" style="stroke:#37474F;stroke-width:1;stroke-linejoin:miter;stroke-miterlimit:10;"/><line style="stroke:#37474F;stroke-width:1;" x1="343.5457" x2="343.5457" y1="1764.2656" y2="1782.2656"/><line style="stroke:#37474F;stroke-width:1;" x1="343.5457" x2="406.8131" y1="1782.2656" y2="1782.2656"/><polygon fill="#37474F" points="396.8131,1778.2656,406.8131,1782.2656,396.8131,1786.2656,400.8131,1782.2656" style="stroke:#37474F;stroke-width:1;stroke-linejoin:miter;stroke-miterlimit:10;"/><line style="stroke:#37474F;stroke-width:1;" x1="494.0806" x2="494.0806" y1="1764.2656" y2="1782.2656"/><line style="stroke:#37474F;stroke-width:1;" x1="494.0806" x2="430.8131" y1="1782.2656" y2="1782.2656"/><polygon fill="#37474F" points="440.8131,1778.2656,430.8131,1782.2656,440.8131,1786.2656,436.8131,1782.2656" style="stroke:#37474F;stroke-width:1;stroke-linejoin:miter;stroke-miterlimit:10;"/><line style="stroke:#37474F;stroke-width:1;" x1="418.8131" x2="418.8131" y1="1677.2656" y2="1697.2656"/><polygon fill="#37474F" points="414.8131,1687.2656,418.8131,1697.2656,422.8131,1687.2656,418.8131,1691.2656" style="stroke:#37474F;stroke-width:1;stroke-linejoin:miter;stroke-miterlimit:10;"/><line style="stroke:#37474F;stroke-width:1;" x1="223.8" x2="159.5212" y1="1609.2656" y2="1609.2656"/><line style="stroke:#37474F;stroke-width:1;" x1="159.5212" x2="159.5212" y1="1609.2656" y2="1631.2656"/><polygon fill="#37474F" points="155.5212,1621.2656,159.5212,1631.2656,163.5212,1621.2656,159.5212,1625.2656" style="stroke:#37474F;stroke-width:1;stroke-linejoin:miter;stroke-miterlimit:10;"/><line style="stroke:#37474F;stroke-width:1;" x1="354.5344" x2="418.8131" y1="1609.2656" y2="1609.2656"/><line style="stroke:#37474F;stroke-width:1;" x1="418.8131" x2="418.8131" y1="1609.2656" y2="1631.2656"/><polygon fill="#37474F" points="414.8131,1621.2656,418.8131,1631.2656,422.8131,1621.2656,418.8131,1625.2656" style="stroke:#37474F;stroke-width:1;stroke-linejoin:miter;stroke-miterlimit:10;"/><line style="stroke:#37474F;stroke-width:1;" x1="159.5212" x2="159.5212" y1="1664.2656" y2="1812.2656"/><line style="stroke:#37474F;stroke-width:1;" x1="159.5212" x2="277.1672" y1="1812.2656" y2="1812.2656"/><polygon fill="#37474F" points="267.1672,1808.2656,277.1672,1812.2656,267.1672,1816.2656,271.1672,1812.2656" style="stroke:#37474F;stroke-width:1;stroke-linejoin:miter;stroke-miterlimit:10;"/><line style="stroke:#37474F;stroke-width:1;" x1="418.8131" x2="418.8131" y1="1794.2656" y2="1812.2656"/><line style="stroke:#37474F;stroke-width:1;" x1="418.8131" x2="301.1672" y1="1812.2656" y2="1812.2656"/><polygon fill="#37474F" points="311.1672,1808.2656,301.1672,1812.2656,311.1672,1816.2656,307.1672,1812.2656" style="stroke:#37474F;stroke-width:1;stroke-linejoin:miter;stroke-miterlimit:10;"/><line style="stroke:#37474F;stroke-width:1;" x1="289.1672" x2="289.1672" y1="1577.2656" y2="1597.2656"/><polygon fill="#37474F" points="285.1672,1587.2656,289.1672,1597.2656,293.1672,1587.2656,289.1672,1591.2656" style="stroke:#37474F;stroke-width:1;stroke-linejoin:miter;stroke-miterlimit:10;"/><line style="stroke:#37474F;stroke-width:1;" x1="289.1672" x2="289.1672" y1="1278.1328" y2="1333.1328"/><polygon fill="#37474F" points="285.1672,1323.1328,289.1672,1333.1328,293.1672,1323.1328,289.1672,1327.1328" style="stroke:#37474F;stroke-width:1;stroke-linejoin:miter;stroke-miterlimit:10;"/><line style="stroke:#37474F;stroke-width:1;" x1="289.1672" x2="289.1672" y1="1912.2656" y2="1932.2656"/><polygon fill="#37474F" points="285.1672,1922.2656,289.1672,1932.2656,293.1672,1922.2656,289.1672,1926.2656" style="stroke:#37474F;stroke-width:1;stroke-linejoin:miter;stroke-miterlimit:10;"/><line style="stroke:#37474F;stroke-width:1;" x1="289.1672" x2="289.1672" y1="1965.2656" y2="1985.2656"/><polygon fill="#37474F" points="285.1672,1975.2656,289.1672,1985.2656,293.1672,1975.2656,289.1672,1979.2656" style="stroke:#37474F;stroke-width:1;stroke-linejoin:miter;stroke-miterlimit:10;"/><line style="stroke:#37474F;stroke-width:1;" x1="289.1672" x2="289.1672" y1="2031.2656" y2="2051.2656"/><polygon fill="#37474F" points="285.1672,2041.2656,289.1672,2051.2656,293.1672,2041.2656,289.1672,2045.2656" style="stroke:#37474F;stroke-width:1;stroke-linejoin:miter;stroke-miterlimit:10;"/><line style="stroke:#37474F;stroke-width:1;" x1="289.1672" x2="289.1672" y1="2084.2656" y2="2104.2656"/><polygon fill="#37474F" points="285.1672,2094.2656,289.1672,2104.2656,293.1672,2094.2656,289.1672,2098.2656" style="stroke:#37474F;stroke-width:1;stroke-linejoin:miter;stroke-miterlimit:10;"/><line style="stroke:#37474F;stroke-width:1;" x1="289.1672" x2="289.1672" y1="1824.2656" y2="1879.2656"/><polygon fill="#37474F" points="285.1672,1869.2656,289.1672,1879.2656,293.1672,1869.2656,289.1672,1873.2656" style="stroke:#37474F;stroke-width:1;stroke-linejoin:miter;stroke-miterlimit:10;"/><line style="stroke:#37474F;stroke-width:1;" x1="228.133" x2="218.133" y1="2181.2656" y2="2181.2656"/><line style="stroke:#37474F;stroke-width:1;" x1="218.133" x2="218.133" y1="2181.2656" y2="2203.2656"/><polygon fill="#37474F" points="214.133,2193.2656,218.133,2203.2656,222.133,2193.2656,218.133,2197.2656" style="stroke:#37474F;stroke-width:1;stroke-linejoin:miter;stroke-miterlimit:10;"/><line style="stroke:#37474F;stroke-width:1;" x1="350.2014" x2="360.2014" y1="2181.2656" y2="2181.2656"/><line style="stroke:#37474F;stroke-width:1;" x1="360.2014" x2="360.2014" y1="2181.2656" y2="2203.2656"/><polygon fill="#37474F" points="356.2014,2193.2656,360.2014,2203.2656,364.2014,2193.2656,360.2014,2197.2656" style="stroke:#37474F;stroke-width:1;stroke-linejoin:miter;stroke-miterlimit:10;"/><line style="stroke:#37474F;stroke-width:1;" x1="218.133" x2="218.133" y1="2236.2656" y2="2254.2656"/><line style="stroke:#37474F;stroke-width:1;" x1="218.133" x2="277.1672" y1="2254.2656" y2="2254.2656"/><polygon fill="#37474F" points="267.1672,2250.2656,277.1672,2254.2656,267.1672,2258.2656,271.1672,2254.2656" style="stroke:#37474F;stroke-width:1;stroke-linejoin:miter;stroke-miterlimit:10;"/><line style="stroke:#37474F;stroke-width:1;" x1="360.2014" x2="360.2014" y1="2236.2656" y2="2254.2656"/><line style="stroke:#37474F;stroke-width:1;" x1="360.2014" x2="301.1672" y1="2254.2656" y2="2254.2656"/><polygon fill="#37474F" points="311.1672,2250.2656,301.1672,2254.2656,311.1672,2258.2656,307.1672,2254.2656" style="stroke:#37474F;stroke-width:1;stroke-linejoin:miter;stroke-miterlimit:10;"/><line style="stroke:#37474F;stroke-width:1;" x1="289.1672" x2="289.1672" y1="2137.2656" y2="2169.2656"/><polygon fill="#37474F" points="285.1672,2159.2656,289.1672,2169.2656,293.1672,2159.2656,289.1672,2163.2656" style="stroke:#37474F;stroke-width:1;stroke-linejoin:miter;stroke-miterlimit:10;"/><line style="stroke:#37474F;stroke-width:1;" x1="289.1672" x2="289.1672" y1="2266.2656" y2="2286.2656"/><polygon fill="#37474F" points="285.1672,2276.2656,289.1672,2286.2656,293.1672,2276.2656,289.1672,2280.2656" style="stroke:#37474F;stroke-width:1;stroke-linejoin:miter;stroke-miterlimit:10;"/><?plantuml-src VLRRRXit47tNLmnKeB5X-HR7TYedBXpPQjmcJX0Rw8k0Xjgb95PSSa5o9QjrWJxr0uf-ORwaPxXSIxQLwC6ITsU6CsVcdE4pEik2cgcme96sSx8Z-Yn6JacJawiCRMyNDfVaP6bT-DoXu4GcSn9ZeOmFhMVaNROhyfbqNZWbz6-rhz_DR548_e4eE-LY1wOVd31ZIQz985vcNOv0kPsRiHCuOcEcl1fgIShmoJk_Usj8S1hnx9qYtznfjVnKcL8uKT1GPDEnivN9UrPRHz_rusV58fSZKUdGjoPSYK9I-wtKCnbK9jhhhQxL7vBs3rPU-eb0XigCQIIqbojlpfopytJomV6BunVzno-N4P-llafml-7wNGfm-EBeulXidTNZ8Yzw5_t-_bVZtKnKDZNIUrfdSwv4OKt-PWroBo--vR2QQ__mkBz__7NZzML_52weeAnv46l_yEYmjxVMx4dX1_td_VCLqniLj5mUzhBL2lo4lZgzhPQMOtuJR4bEZIUXHNJt2jLVxBrvVahutAqRpBl6h7T-tfYbCqP2QTWcYzxBYwFU3yd2Lrd6VRXhmR0-6DCR1ETHDbLI-vFq5aD9OO8qhG_IjUbFXElEX5Qv29ZQTbr5kqsxyP_IIIz3kpqmsegSXXN71oLpKS8zLU1F44IDQ8CzwcmHOAncqlouoQSPsbX8lzdYRBk-b9b7KRQ02eYn7vWDOAP1TK-vyfa5lnSaJL1EwiKcnvQW0sqOco8qLjHxT-a9bNqyktaxCB63syuEGMf1MXeFz4cAR19Zc5oDkDXS1fa5cW204-gXs5jI7aAGwOfxCLmqBEqCZ4NoBffwahV9eZAQmUOCdCfpQJXyjn1k2WbPHEkcPn0hvQrR30oBYpAvBF4OjRsE56zmOxUaPVU0tLShRrMW0_hoztzaB5LUi6ubwvDeuZ5aAnNMdQZd47tWVZvj0nl9Mv45lG22FBPnDl8K-Qa3Cgb3TbFNsIrrUpd09w_kP_mqkZL9rItylSh74BXb2YCv1y1X8Wo5kLr5Q62CDTihOFgrEQM8iSek9Qo6ScITZApCCKLPG0jEaaS2QoMp-FtN0wPyHAd2oKGFtZv2Qxg-_EdowcONNpSNdzuJaWOPN6n2rwrmY-EC0Eqp3n84KCsY6ZGKC7_vvrz2RXcC430LncEQsummrQNSV0HXDtEIgPcAwH2C5hI5q_ta_gIOGWaawuXT45Lf31p6ziElLrI2R6M8d1kOvY4Jf4DpfpXufCx-xglQ_tIdza3MXVAUyOrqukmXBjAfBCNiB5l_977qTpdOp36Udxf8x7OnbJn10-EDAFt41k8j3hWsUErFCObRO5hw3HLusA1pvKiHiaca1Mkqrb9tuYI72G3BQOb6tSN8ioHRm2xU2uJcF_csDM31UfvqIwTcZ3ztScxTD3Y9fADySQ-nj1roROfOerP3673dQAx2XE9HgqFoG9lgjWatdfrG9aenL9flIwzfFX4uNa0iuLAXMYWam0eoxv2HioZ5szXrqDmy3WFWcHk-td2xqIBkLzmHlEZA0IWcSgqCtv1OjOCgfArOBhReQ8-jeCUDFF5BqBqAM0fY20cGQ_IXsz22Yuk7T6eJFF_byjsxUZhYMZjz2b9bvawKqHUY3kByVFtX2hZCfEPnmPG4fqewkxg-x83bF1OXsdIeMLudzwAIDB8K2rvQQsM3mQDC2rKa3NsOJwFdzSxjq5JA4ie1W25MUFQec6-BoNlfS1FzFjqCagO4ALpa3icuxvhHYhTGx0mjeZFc9hQpfkazFPsOenSxXGo2lpcjcWYybrnCExf5XTykOW9rjLrIhAwub-hq16e9vc6cWQFm4ffWSM61vf78iggeD4y_20FDnswrBYOMeukIjJeL48EXGUSKux2crV7ZvLglL75_uTvQNhSxc4zbGdqrgLBTWF7XTapRxt57wnMvnqr9rwBJrce_w_Vx4I8EZbqFxTAu1ppeOzsxLbmG_mC0?></g></svg>